<?xml version="1.0" encoding="UTF-8" standalone="no"?>
<svg
   width="256"
   height="48"
   viewBox="0 0 256 48"
   fill="none"
   version="1.1"
   id="svg601"
   xmlns="http://www.w3.org/2000/svg"
   xmlns:svg="http://www.w3.org/2000/svg">
  <defs
     id="defs605" />
  <path
     d="m 196.64761,20.494873 c 0.96932,-0.427737 1.65238,-0.709045 2.31234,-1.028879 0.62861,-0.304406 1.2234,-0.682069 1.86026,-0.971049 0.84475,-0.389212 1.90646,-0.782301 2.54662,-0.05395 0.42898,0.489361 0.35556,1.525994 0.30936,2.308212 -0.14354,2.366041 -0.42485,4.720533 -0.56344,7.086574 -0.0429,0.743776 0.0924,1.545298 0.34318,2.250466 0.51724,1.433517 1.96008,2.026986 3.40787,1.522116 3.60091,-1.256235 5.54944,-3.868854 5.70041,-7.699265 0.0808,-2.096282 0.10394,-4.192564 0.17324,-6.288929 0.0924,-2.728277 0.52879,-3.059659 3.6702,-2.585643 0.34731,2.739826 0.0115,5.579802 0.18562,8.724266 0.91817,-1.071281 1.63587,-1.961402 2.41215,-2.80145 0.91405,-0.986476 1.96751,-1.741801 3.33775,-2.053962 2.19272,-0.493238 3.25773,0.107904 3.84015,2.292868 0.085,0.319833 0.20871,0.631995 0.42072,1.271661 0.9223,-1.186856 1.60948,-2.208063 2.42783,-3.102062 1.45439,-1.591495 2.89063,-3.229269 4.53476,-4.616506 0.8563,-0.720595 2.09537,-1.12911 3.22968,-1.344917 1.53606,-0.292858 2.28924,0.32371 2.34286,1.899779 0.066,1.87668 -0.10807,3.761032 -0.20459,5.645385 -0.0734,1.46437 -0.35885,2.940289 -0.22768,4.385273 0.13941,1.502895 0.51724,3.025011 1.05758,4.43543 0.63686,1.668545 1.49316,1.895901 3.16451,1.113683 1.94524,-0.913303 3.11832,-2.531774 3.92924,-4.450856 0.54035,-1.287006 1.03367,-2.597193 1.60536,-3.868854 0.59396,-1.317942 0.69461,-1.329491 2.45423,-0.863229 0.0272,0.06171 0.0924,0.127208 0.0808,0.181159 -0.92559,4.335116 -2.04093,8.574043 -5.87777,11.417896 -1.65155,1.225381 -3.52337,1.96528 -5.47603,1.194611 -2.31563,-0.913303 -3.47716,-2.88246 -3.87479,-5.340979 -0.62119,-3.822656 -0.29368,-7.618337 0.30111,-11.533553 -0.98829,0 -1.45934,0.624323 -1.96833,1.12911 -3.21484,3.175235 -5.58822,6.978671 -8.02347,10.735826 -0.40176,0.620446 -0.84888,1.21771 -1.28115,1.838155 -1.28528,-0.574165 -1.45934,-1.549092 -1.48574,-2.524101 -0.0355,-1.256235 0.0808,-2.51247 0.0924,-3.7725 0.007,-0.8709 -0.0503,-1.741801 -0.085,-2.855484 -1.89492,0.716717 -2.96405,1.938304 -3.74776,3.29477 -1.1805,2.050003 -2.14899,4.227295 -3.17193,6.36598 -0.53292,1.113601 -0.98829,2.262015 -1.64,3.780254 -0.93467,-0.944074 -1.57896,-1.595372 -2.33544,-2.358369 -1.14998,0.612773 -2.37751,1.394992 -3.70073,1.946059 -3.05644,1.279333 -5.88602,0.389211 -7.5219,-2.227367 -0.99984,-1.599167 -1.38591,-3.329419 -1.22752,-5.209894 0.11549,-1.383442 0.15096,-2.774557 0.22356,-4.234967 -1.82479,0.389129 -3.49614,0.743693 -5.30196,1.129028 -0.92642,1.680177 -1.83717,3.568324 -2.96817,5.314002 -0.9454,1.456616 -2.03021,2.863157 -3.26103,4.080866 -3.40045,3.364067 -7.30577,2.585643 -9.24358,-1.741801 -0.20046,-0.44704 -0.36215,-0.905548 -0.65171,-1.633897 -0.49414,0.658971 -0.89177,1.179184 -1.27785,1.710948 -1.34632,1.849704 -2.97889,3.344845 -5.19471,4.084743 -2.41216,0.805399 -3.99029,0.150306 -5.31433,-2.026986 -1.34632,-2.219613 -1.52451,-4.658827 -1.2465,-7.102001 0.33245,-2.928657 1.197,-5.745534 2.73223,-8.308078 1.7258,-2.878583 4.71625,-4.258148 8.0276,-3.65313 1.14998,0.21193 2.20427,0.608814 3.24618,-0.466262 0.33575,-0.343014 1.38922,-0.285185 1.95266,-0.0424 0.96107,0.41231 0.75235,1.483591 0.59809,2.242711 -0.74906,3.664678 -0.67894,7.364005 -0.64099,11.063414 0.0115,0.897876 0.0965,1.826523 0.35555,2.678202 0.47105,1.545215 1.7786,2.019232 3.12574,1.129028 0.80268,-0.531764 1.58638,-1.194529 2.16137,-1.957526 1.05017,-1.391114 1.94524,-2.901681 2.89806,-4.362174 0.86867,-1.329491 1.46263,-2.6358 0.49827,-4.242722 -0.32009,-0.531763 -0.31679,-1.383442 -0.18149,-2.030781 0.45124,-2.146439 1.35457,-4.138695 2.78998,-5.803363 0.50239,-0.58192 1.34302,-1.009657 2.11105,-1.202366 1.34302,-0.339054 2.16549,0.358442 2.08795,1.776532 -0.085,1.595289 -0.38195,3.179112 -0.59397,4.770607 -0.0544,0.393089 -0.13116,0.782301 -0.26233,1.545215 z m -18.31226,0.574166 c -4.20642,-1.229259 -8.7453,1.803507 -9.01506,5.876618 -0.0429,0.67052 0.0619,1.406541 0.30111,2.034659 0.52054,1.37181 1.35787,1.776449 2.80896,1.502895 1.60618,-0.304489 2.8601,-1.190734 3.63968,-2.585725 1.15741,-2.077061 1.87181,-4.32365 2.26531,-6.82457 z"
     fill="#000000"
     id="path587"
     style="stroke-width:0.0824951" />
  <path
     d="m 88.52462,28.752959 c 3.53574,0.107904 6.607855,-0.693618 9.694822,-2.053879 -0.04207,-2.936412 0.714406,-5.668567 2.315638,-8.127085 0.64428,-0.994148 1.2894,-2.034658 2.13415,-2.84773 0.77957,-0.74757 1.75632,-1.437311 2.77513,-1.761022 2.72481,-0.8709 5.13697,0.832375 5.33331,3.6839 0.16994,2.504798 -0.74823,4.682008 -2.45423,6.47776 -0.96107,1.009658 -2.03763,1.922878 -3.13399,2.786106 -1.03779,0.816949 -2.17292,1.51824 -3.25361,2.258138 0.45538,1.845827 0.93797,2.419993 2.56643,2.419993 1.1541,0 2.3775,-0.21193 3.45406,-0.62424 3.16534,-1.206161 5.14852,-3.780337 6.98569,-6.443113 0.32833,-0.477811 0.3473,-1.186856 0.45537,-1.79567 0.72183,-4.092415 2.85598,-6.913169 7.0591,-7.895851 0.20459,-0.04628 0.40093,-0.134879 0.60964,-0.157978 1.86769,-0.20038 3.7164,-0.119453 5.06355,1.368016 1.36612,1.514362 0.84887,3.217638 0.25408,4.93634 -1.16483,3.356395 -3.43427,5.529727 -6.76872,6.658837 -0.45949,0.154101 -0.90744,0.331383 -1.40901,0.516337 -0.10807,1.722497 0.44052,3.148342 1.91471,3.934437 1.37354,0.732144 2.8172,0.443164 4.18745,-0.33526 3.04077,-1.722497 5.3795,-4.219623 7.67204,-6.77829 0.31678,-0.354564 0.64099,-0.70525 0.94539,-1.044305 1.42387,0.917098 1.62103,1.302432 0.89177,2.470068 -1.45108,2.319843 -3.06799,4.535579 -5.2838,6.196452 -1.78685,1.34104 -3.60421,2.6358 -5.80436,3.313992 -3.53079,1.094379 -6.67302,-0.393007 -7.88405,-3.868937 -0.33658,-0.963377 -0.63356,-1.945976 -1.02707,-3.175235 -1.78271,2.17721 -3.55801,3.93056 -5.86622,5.051916 -1.72497,0.836252 -3.48872,1.448943 -5.44137,1.333285 -2.18035,-0.127125 -3.90945,-0.982599 -4.943934,-3.00183 -0.25491,-0.493239 -0.551892,-0.967255 -0.953643,-1.668546 -1.547607,0.443081 -3.125738,0.893999 -4.858959,1.391115 0.556016,2.161783 0.895896,4.258065 0.324205,6.408299 -0.612938,2.323721 -1.451088,4.539456 -2.866704,6.485515 -0.815051,1.117478 -1.667225,2.381468 -3.33115,2.184882 -1.72885,-0.208053 -2.462066,-1.633897 -2.875036,-3.01338 -0.509407,-1.718702 -0.806637,-3.545226 -0.906951,-5.340978 -0.235441,-4.184893 -0.436069,-8.381417 -0.385912,-12.566309 0.0424,-3.410346 0.289393,-6.843791 0.764152,-10.223284 0.652206,-4.639606 2.365711,-8.9131798 5.410852,-12.5547349 0.617063,-0.736021 1.396641,-1.3872618 2.214992,-1.8959248 1.710123,-1.06356691 3.60091,-0.47012732 4.279844,1.4219411 0.362979,1.0134685 0.528794,2.1926447 0.42485,3.2600649 -0.485896,5.0172677 -2.813082,9.2330127 -6.36037,12.6780067 -1.717547,1.668546 -2.562297,3.348723 -2.246341,5.691665 0.185614,1.371811 0.216137,2.766802 0.324206,4.242639 z M 88.995668,16.209831 C 91.322854,12.965135 93.283762,9.5933973 92.674123,5.2620266 89.775246,6.1753048 88.62939,11.088538 88.995668,16.209831 Z m 29.898692,8.250332 c 2.74378,-1.175307 5.3564,-2.07706 7.16304,-4.292796 -1.04603,-1.595372 -1.6598,-1.988378 -2.93765,-1.433516 -1.11533,0.485566 -2.21086,1.202283 -3.05231,2.073183 -0.81836,0.847802 -1.64826,1.895902 -1.17721,3.653129 z m -17.27117,0.481689 c 2.20014,-1.248563 3.87479,-2.681997 5.26483,-4.419921 0.71771,-0.897876 0.99572,-1.965362 0.42815,-3.071291 -1.25475,-0.446958 -1.86026,0.450835 -2.493,1.140659 -1.58638,1.741801 -2.98714,3.5953 -3.20328,6.350553 z m -12.936054,6.970999 c 0.150141,3.102062 0.296983,6.146295 0.447949,9.19061 1.6631,-2.154111 2.458353,-4.485504 1.794267,-7.125181 -0.269759,-1.063527 -0.929719,-1.838073 -2.242216,-2.065429 z"
     fill="#000000"
     id="path589"
     style="stroke-width:0.0824951" />
  <path
     d="M 6.2324801,36.648728 C 6.0433684,36.05534 5.777076,35.431018 5.6458593,34.779802 4.5613874,29.400298 4.9010081,24.040099 6.2286194,18.772376 c 0.8374734,-3.321747 2.7517055,-6.111647 5.3335946,-8.385211 1.381636,-1.2138821 3.840013,-1.4759195 5.31816,-0.4816889 0.629107,0.4238599 1.069054,1.2523569 1.381627,1.9845009 0.324206,0.755325 0.409094,1.622348 0.567319,2.443174 0.158226,0.813072 0.274049,1.637692 0.467005,2.820754 0.4477,-0.978804 0.764152,-1.649324 1.061299,-2.327516 1.385504,-3.167563 3.13374,-6.0924089 5.642333,-8.520115 1.134638,-1.1021012 2.431378,-1.8728031 4.00596,-2.1579556 2.196019,-0.3930642 3.897975,0.5433373 4.615764,2.6512018 0.621353,1.8227121 0.706323,3.7263188 0.33196,5.5914498 -0.490185,2.462395 -1.142391,4.897814 -1.740563,7.337029 -0.548015,2.238916 -1.188671,4.458528 -1.663348,6.712789 -0.409093,1.938304 -0.362813,3.899789 0.389789,5.784141 0.37428,0.940279 0.868343,1.787999 2.057015,1.822729 0.737093,0.0231 1.443333,0.07705 1.497368,1.051977 0.05403,0.998025 -0.625148,2.08861 -1.547608,2.215735 -2.145779,0.292858 -3.261112,0.196586 -4.550098,-1.737923 -0.991838,-1.491264 -1.370078,-3.175236 -1.431867,-4.970988 -0.146594,-4.373724 0.683142,-8.624118 1.455048,-12.886143 0.436069,-2.404566 0.849039,-4.816887 1.21177,-7.236879 0.10807,-0.7243896 0.01543,-1.4797062 -0.370484,-2.4507887 -0.995717,0.9209832 -2.053137,1.7803509 -2.971638,2.7707037 -2.944744,3.175235 -4.967029,6.913169 -6.499127,10.932329 -0.945559,2.473945 -1.848632,4.963316 -2.82892,7.606788 -0.818186,0.362236 -1.493574,0.04628 -1.806147,-0.909426 -0.189161,-0.581837 -0.270171,-1.229259 -0.254745,-1.841949 0.05791,-2.516348 0.169857,-5.032695 0.262417,-7.545165 0.02706,-0.697495 0.05791,-1.398786 0.06179,-2.096282 0.0039,-1.279333 0.05791,-2.743703 -1.439539,-3.152136 -1.443416,-0.393089 -2.249987,0.859268 -2.990982,1.868925 -1.223402,1.660874 -1.9914147,3.556775 -2.2963,5.576007 -0.3820759,2.550995 -0.6753789,5.121294 -0.8529083,7.691593 -0.1235033,1.807302 0.027017,3.637703 0.027017,5.456554 0,1.776449 -0.2392852,2.00001 -2.4313855,2.254343 z"
     fill="#000000"
     id="path591"
     style="stroke-width:0.0824951" />
  <path
     d="m 79.051465,37.060048 c 9.07e-4,3.3e-4 0.0018,7.42e-4 0.0027,0.0012 h -0.0039 c 4.12e-4,-4.13e-4 7.42e-4,-8.25e-4 0.0012,-0.0012 z m 0,0 c -1.445149,-0.605431 -1.900109,-1.818521 -2.185542,-3.012308 -0.38517,-1.616078 -0.682647,-3.255585 -0.979959,-4.894762 -0.101882,-0.561461 -0.203681,-1.12284 -0.309027,-1.683147 -0.074,-0.391439 -0.129022,-0.784363 -0.191388,-1.229176 -0.03523,-0.251445 -0.07276,-0.519554 -0.117391,-0.813237 -2.558749,-0.281308 -5.098113,-0.562616 -7.741832,-0.855474 -0.505117,1.024754 -0.933432,2.093808 -1.361416,3.162119 -1.118716,2.79221 -2.235452,5.579471 -4.716986,7.558363 -1.566911,-0.967255 -1.717382,-1.183062 -1.227279,-2.477822 0.184211,-0.484081 0.461395,-0.931782 0.739568,-1.381132 0.16466,-0.265964 0.329733,-0.532506 0.476162,-0.807627 0.688751,-1.286346 1.367438,-2.578713 2.046208,-3.871329 0.260684,-0.496373 0.521368,-0.992828 0.78263,-1.488953 0.393667,-0.743693 0.362814,-1.402664 -0.123495,-2.146357 -0.300117,-0.460075 -0.499672,-0.986393 -0.724884,-1.580358 -0.104851,-0.276771 -0.215312,-0.568144 -0.344169,-0.874365 0.244596,-0.06055 0.475831,-0.117886 0.69865,-0.173075 0.684213,-0.169527 1.287996,-0.319173 1.948864,-0.482019 0.21325,-0.774051 0.422292,-1.553712 0.632077,-2.336177 0.488866,-1.823224 0.981774,-3.661297 1.54076,-5.478663 0.63678,-2.069389 1.373873,-4.1117107 2.184387,-6.119385 0.385912,-0.9595249 0.945476,-1.8920739 1.60156,-2.693596 1.964455,-2.39688019 5.17541,-1.9383141 6.476028,0.8708922 0.844584,1.8213839 0.900598,3.7760716 0.956035,5.7110925 0.0064,0.2224893 0.01279,0.4447313 0.02038,0.6664773 0.05791,1.736521 0.04892,3.474445 0.03993,5.212781 -0.0066,1.270506 -0.0132,2.541343 0.0064,3.812097 0.01155,0.743693 0.02698,1.707071 0.467005,2.173333 0.83617,0.885337 0.57499,1.626143 0.269594,2.492341 -0.02153,0.06129 -0.04339,0.123247 -0.06509,0.185861 -0.216137,0.628118 -0.351182,1.337163 -0.308697,1.992256 0.06839,1.053132 0.174642,2.103129 0.280896,3.153292 0.09743,0.963295 0.194936,1.926755 0.263242,2.892854 0.0069,0.09677 0.01427,0.193864 0.02161,0.291043 0.108068,1.423782 0.219272,2.88972 -1.054782,4.22416 z M 75.299093,20.267599 c 0.03589,-0.148656 0.07573,-0.284196 0.112937,-0.41099 0.07474,-0.254333 0.139168,-0.47377 0.141726,-0.694939 0.03085,-3.3526 0.04636,-6.708994 0.05016,-10.0615107 0,-0.3429568 -0.05403,-0.7013319 -0.158225,-1.0327393 -0.328001,-1.0365918 -1.13076,-1.2485299 -1.883363,-0.443147 -0.420642,0.4470077 -0.78725,1.0057633 -0.99951,1.5799125 -1.188672,3.2061705 -2.331063,6.4314805 -3.461823,9.6568725 -0.09842,0.281721 -0.129022,0.585963 -0.161856,0.911571 -0.01609,0.159875 -0.03275,0.324948 -0.05816,0.49497 z"
     fill="#000000"
     id="path593"
     style="stroke-width:0.0824951" />
  <path
     d="m 50.657238,20.487118 c -0.366608,-0.608813 -0.764152,-1.244685 -1.138514,-1.895901 -1.798475,-3.117489 -4.465211,-3.491274 -7.054814,-0.986476 -2.639842,2.554872 -3.245768,5.841888 -2.994901,9.259906 0.162103,2.200391 0.737176,4.404577 1.404809,6.520163 0.768029,2.427747 1.995308,2.786106 4.133333,1.437394 4.299313,-2.712933 7.927116,-6.18878 11.288544,-9.961362 0.467004,-0.520214 0.883851,-1.086625 1.377831,-1.579946 0.648329,-0.651216 1.481943,-0.905548 2.296251,-0.443081 0.841368,0.481689 0.621352,1.340958 0.374363,2.073184 -0.926255,2.762925 -2.512387,5.155942 -4.426603,7.306176 -2.581931,2.905559 -5.518838,5.360282 -9.300989,6.61264 -2.666818,0.882449 -5.279602,1.028878 -7.498719,-0.97105 -0.953232,-0.859351 -1.775295,-1.988461 -2.304005,-3.152219 -1.420236,-3.13671 -1.644044,-6.493104 -1.138516,-9.861131 0.416849,-2.786023 1.420235,-5.406397 2.832716,-7.845693 0.486309,-0.83617 1.088358,-1.645447 1.786926,-2.31209 4.283804,-4.076988 9.432156,-2.736031 12.048817,2.38914 0.795006,1.556847 0.21226,2.689752 -1.686529,3.406552 z"
     fill="#000000"
     id="path597"
     style="stroke-width:0.0824951" />
  <path
     d="m 155.87442,20.749288 c 3.58111,-0.231234 6.88091,-0.443164 10.15762,-0.655094 0.25821,2.192637 -0.19304,3.144465 -1.86439,3.5953 -2.22242,0.601142 -4.49186,1.025002 -6.74562,1.502896 -0.60964,0.131002 -1.23908,0.177199 -1.92214,0.269759 -1.18463,4.396822 -0.34318,9.213709 -2.82545,13.491078 -1.28115,-0.820826 -1.65568,-1.703275 -1.45109,-2.947961 0.41742,-2.550995 0.76803,-5.113539 1.12688,-7.672289 0.11632,-0.816949 0.17407,-1.637775 0.26316,-2.508675 -1.16978,-0.508665 -2.60519,0.219684 -3.37735,-1.021124 -0.73338,-1.179185 -1.33889,-2.404566 -1.37024,-4.007693 h 4.95548 c 0.17406,-0.628118 0.39762,-1.132905 0.44382,-1.656996 0.27059,-3.198416 0.54447,-6.400628 0.69874,-9.6029208 0.0346,-0.6974628 -0.33576,-1.4604597 -0.65997,-2.1232581 -0.88352,-1.8072937 -0.68305,-2.2851299 1.32405,-2.7013093 0.75236,-0.1541338 1.51626,-0.3391042 2.27686,-0.35067 4.40689,-0.057796 8.8146,-0.096329 13.22231,-0.069362 1.37355,0.00771 1.69033,0.5587639 1.36942,1.907484 -0.36628,1.5336989 -0.72183,1.8458272 -2.43855,1.9652883 -3.41612,0.2350615 -6.83142,0.4585654 -10.25084,0.6512408 -1.81407,0.1040428 -1.87511,0.1618471 -2.01865,1.8882211 -0.26234,3.194539 -0.57499,6.389078 -0.91075,10.049962 z"
     fill="#000000"
     id="path599"
     style="stroke-width:0.0824951" />
</svg>
