<?xml version="1.0" encoding="UTF-8" standalone="no"?>
<svg
   width="256"
   height="48"
   viewBox="0 0 256 48"
   fill="none"
   version="1.1"
   id="svg37"
   sodipodi:docname="text-logo.svg"
   inkscape:version="1.2.1 (9c6d41e410, 2022-07-14)"
   xmlns:inkscape="http://www.inkscape.org/namespaces/inkscape"
   xmlns:sodipodi="http://sodipodi.sourceforge.net/DTD/sodipodi-0.dtd"
   xmlns="http://www.w3.org/2000/svg"
   xmlns:svg="http://www.w3.org/2000/svg">
  <sodipodi:namedview
     id="namedview17"
     pagecolor="#505050"
     bordercolor="#ffffff"
     borderopacity="1"
     inkscape:showpageshadow="0"
     inkscape:pageopacity="0"
     inkscape:pagecheckerboard="1"
     inkscape:deskcolor="#505050"
     showgrid="false"
     inkscape:zoom="3.079599"
     inkscape:cx="157.6504"
     inkscape:cy="38.316678"
     inkscape:window-width="2560"
     inkscape:window-height="1369"
     inkscape:window-x="-8"
     inkscape:window-y="-8"
     inkscape:window-maximized="1"
     inkscape:current-layer="svg37" />
  <path
     d="m 11.692677,5.437106 c 0.732091,4.117607 0.966686,8.320146 2.705991,12.692533 0.54999,-0.869617 0.97472,-1.411544 1.261953,-2.014228 1.799847,-3.777881 3.591632,-7.5557182 5.330866,-11.3618757 0.457125,-0.9990659 0.96277,-1.6988195 2.163964,-1.9050944 2.904146,-0.4975101 3.854677,0.2265035 3.587745,3.1225724 -1.003083,10.7470817 1.476333,20.8630007 5.6384,30.6312167 1.270015,2.985061 0.359941,5.197545 -1.318679,7.478849 -1.508583,-0.11734 -2.050654,-1.124455 -2.580487,-2.20039 -3.559382,-7.252374 -5.694982,-14.929334 -6.871989,-22.897558 -0.06076,-0.400399 -0.149735,-0.792734 -0.627017,-1.294347 -0.416523,0.809002 -0.792733,1.646225 -1.261952,2.422833 -0.982782,1.630099 -1.884794,3.336939 -3.070006,4.813271 -1.278078,1.593674 -2.386336,1.545154 -3.935477,0.181987 C 10.988878,23.586053 10.301276,21.462546 9.5165904,19.411892 9.0514462,18.19846 8.7440424,16.924269 7.9876773,15.62186 7.7409451,16.256939 7.3971441,16.871718 7.2636637,17.526954 6.0178943,23.638748 4.7276075,29.750398 4.9217596,36.040003 4.9945684,38.309213 5.1684918,40.57828 5.2979265,42.843315 5.415224,44.910239 4.3474093,46.59289 2.4382836,47.329041 1.455415,47.709282 1.042848,47.13496 0.91341476,46.317895 0.5736566,44.145725 0.084242,41.969667 0.03166027,39.789578 -0.20293572,29.815044 0.88105752,20.022639 4.7761563,10.715565 5.3949953,9.2392177 6.2848408,7.8761221 6.9400913,6.4118975 7.664105,4.7899325 8.8694314,4.5796119 10.37813,5.008359 c 0.41661,0.1172975 0.825128,0.2588693 1.314547,0.4166098 z"
     fill="#000000"
     id="path2"
     style="stroke-width:0.0143976" />
  <path
     d="m 179.96969,29.738304 c -0.11231,4.53007 1.33178,9.177625 -0.91281,13.533772 -1.76803,-0.57029 -2.5527,-1.698776 -2.63333,-3.664484 -0.0778,-1.905095 -0.0849,-3.814221 -0.15837,-5.72349 -0.0288,-0.727944 -0.25484,-1.452001 -0.22605,-2.176058 0.0518,-1.439907 -0.43769,-2.293399 -1.92928,-2.705891 -0.55431,-0.153766 -1.04815,-0.978895 -1.3145,-1.605911 -0.46505,-1.096092 -0.20301,-1.536947 0.93008,-1.998103 0.39162,-0.157654 0.81347,-0.246632 1.31883,-0.392336 -1.36346,-5.864874 -2.99327,-11.454826 -6.72658,-16.2034094 -0.57014,-0.724028 -1.00783,-1.6138735 -1.27851,-2.495642 -0.29947,-0.9747915 0.10079,-1.7230795 1.24252,-1.8889258 1.73923,-0.2507779 3.46551,-0.6552506 5.21338,-0.7563651 5.07229,-0.295281 10.04235,-1.1810808 14.98505,-2.2691356 1.00352,-0.222465 2.04303,-0.3235839 3.00911,-0.64716773 1.80114,-0.60267471 2.94144,0.24268789 3.97231,1.53702473 2.33817,2.9365118 2.0675,3.6079597 -1.59382,4.4330879 -5.73458,1.2983783 -11.55122,2.0426205 -17.39234,2.6493367 -0.55719,0.05664 -1.10862,0.2184264 -1.84865,0.3721211 2.16108,4.4209652 3.31721,8.9470762 4.34088,13.5096852 0.25484,1.14058 0.81203,1.407512 1.88033,1.185069 2.29354,-0.481313 4.59428,-0.9262 6.9051,-1.338836 2.09054,-0.372179 4.1854,-0.744213 6.29321,-0.990989 1.87313,-0.218412 2.2849,0.351878 1.74787,2.107381 -0.12958,0.420699 -0.32395,0.825129 -0.41753,1.25389 -0.31963,1.49649 -1.25835,2.212484 -2.74563,2.418802 -4.13356,0.574321 -8.25992,1.205369 -12.65696,1.852399 z"
     fill="#000000"
     id="path4"
     style="stroke-width:0.0143976" />
  <path
     d="M 80.732437,44.157963 C 79.458391,43.652318 78.787029,42.68163 78.467402,41.411471 77.589722,37.933003 76.699949,34.454536 75.818094,30.975924 75.603713,30.134671 75.413665,29.289242 75.174952,28.302285 H 63.659584 c -0.473251,5.363405 0.517738,10.718747 -0.578353,15.981081 -2.095143,-0.420699 -3.122558,-1.334804 -3.19541,-2.985061 -0.137498,-3.142858 -0.266932,-6.297811 -0.169892,-9.436494 0.218412,-7.070389 1.092204,-14.063749 3.393665,-20.782202 1.04354,-3.0416863 2.503604,-5.9418009 3.741368,-8.9187701 0.50147,-1.20535231 1.46827,-1.55320395 2.63707,-1.59365193 1.193276,-0.0444927 1.925395,0.63098753 2.374313,1.63409483 0.509676,1.1365921 1.051603,2.2731698 1.403481,3.4582964 2.196359,7.3655688 4.360322,14.7433028 6.499954,22.1249678 0.918137,3.16719 1.58158,6.419183 2.685734,9.517409 0.999052,2.799043 0.42473,4.94285 -1.72714,6.86407 z M 74.248752,24.42745 C 72.909917,17.798062 71.207109,11.678234 69.018957,5.2429683 65.265351,11.649928 63.918453,18.186366 63.477597,25.280942 67.158352,24.989678 70.487228,24.726777 74.248752,24.42745 Z"
     fill="#000000"
     id="path6"
     style="stroke-width:0.0143976" />
  <path
     d="m 249.91625,29.68964 c -1.04815,1.844481 -1.22956,3.959924 -1.71908,5.978184 -0.48088,1.986009 -0.91856,3.984112 -1.50455,5.937871 -0.16125,0.541926 -0.76451,1.290171 -1.2094,1.318535 -0.4852,0.03239 -1.14029,-0.566259 -1.50887,-1.051603 -0.7602,-1.003083 -1.09566,-2.15187 -1.16909,-3.470405 -0.16557,-2.981029 -0.47224,-5.96609 -1.73923,-8.821716 -1.26123,0.270964 -1.44408,1.290316 -1.5895,2.159933 -0.41177,2.447021 -0.74868,4.914343 -1.02367,7.381664 -0.17277,1.553217 -0.54135,2.993124 -1.46424,4.335991 -1.24971,-0.165717 -1.84722,-0.821097 -1.99695,-1.990041 -0.275,-2.180089 -0.54999,-4.360178 -0.88258,-6.532348 -0.28651,-1.880763 -0.65941,-3.749431 -0.99055,-5.622131 -0.12094,-0.699869 -0.23468,-1.399594 -0.33979,-2.018404 1.37498,-1.019352 2.35402,-0.416667 3.28842,0.363972 2.72979,-4.590828 6.53653,-4.570527 9.38006,0.186162 0.50967,-0.873792 0.92576,-1.690714 1.43544,-2.443134 1.29867,-1.913157 3.87152,-2.535999 5.55749,-1.23762 0.64645,0.497438 1.22523,1.318535 1.43544,2.103205 0.54999,2.038561 0.94736,4.129817 1.27419,6.216897 0.35274,2.240847 0.57447,4.501851 0.80915,6.758824 0.14973,1.447969 -0.072,2.770679 -1.56934,3.591776 -2.18413,-1.116392 -2.82338,-3.110464 -3.12717,-5.246064 -0.36714,-2.600788 -0.61046,-5.221877 -0.90561,-7.834758 -0.14974,-0.02433 -0.29947,-0.04449 -0.44921,-0.06882 z"
     fill="#000000"
     id="path8"
     style="stroke-width:0.0143976" />
  <path
     d="m 90.621881,25.191965 c 2.228753,-0.408605 3.935592,-0.703901 5.630337,-1.043685 0.497439,-0.101071 0.978751,-0.299182 1.456033,-0.485344 0.825128,-0.319483 1.613974,-0.246631 2.26921,0.335753 0.715849,0.639111 0.513559,1.464239 0.246629,2.232784 -0.922166,2.661402 -1.302407,2.900115 -3.478465,2.811138 -1.654287,-0.06882 -3.312606,-0.01224 -5.063934,-0.01224 0.137497,4.692043 2.349981,8.870236 1.638018,13.453001 -1.658319,0.109278 -2.273098,-0.869617 -2.58855,-2.01826 -0.461156,-1.686682 -0.80094,-3.40979 -1.132517,-5.128867 -0.246776,-1.290316 -0.404574,-2.600788 -0.58656,-3.903198 -0.149591,-1.083997 -0.327546,-2.010341 -1.395418,-2.77068 -0.699725,-0.497582 -0.885742,-1.711014 -1.330773,-2.67364 0.622985,-0.412636 1.035478,-0.683599 1.508728,-0.99502 0,-0.173923 0.01209,-0.388304 0,-0.602685 -0.19408,-2.843532 -0.465188,-5.68692 -0.57029,-8.534483 -0.117341,-3.134738 0.776608,-6.0510357 2.119475,-8.8783415 2.641245,-5.5696886 8.983401,-7.12289053 14.112126,-1.8970173 0.56223,0.5703189 1.02727,1.2457981 1.48036,1.9091401 1.26196,1.8606057 1.10416,4.2106297 -0.32366,5.8851757 -0.48534,0.566273 -1.03533,0.610761 -1.50858,0.13348 -0.5582,-0.562227 -0.99905,-1.245798 -1.48454,-1.88082 -0.75228,-0.982897 -1.38318,-2.0911694 -2.269066,-2.9365262 -1.824179,-1.7392625 -3.81422,-1.6462395 -5.658556,0.064717 -2.24891,2.0871092 -3.025518,4.8456662 -3.19541,7.7175332 -0.169892,2.891908 0.06882,5.812323 0.137497,9.213907 z"
     fill="#000000"
     id="path10"
     style="stroke-width:0.0143976" />
  <path
     d="m 107.34689,32.626181 c -0.14556,2.657514 0.82109,3.939623 3.46637,4.04487 2.39044,0.09704 4.80924,0.412492 7.18759,-0.319627 0.48534,-0.149592 1.28614,-0.08898 1.58949,0.222443 0.26694,0.275139 0.1578,1.067872 0,1.565454 -0.66733,2.127538 -1.95764,3.591777 -4.3642,3.656422 -1.53306,0.04046 -3.07404,0.117341 -4.60293,0.04046 -5.53733,-0.283202 -8.24725,-6.524286 -7.21998,-10.387026 0.73212,-2.750524 1.81209,-5.274428 3.9032,-7.260437 1.78372,-1.694745 3.95992,-2.60482 6.39485,-2.44299 3.99218,0.266932 4.62308,2.827262 3.64836,5.359374 -0.83319,2.159788 -2.37028,3.55535 -4.46139,4.247013 -1.77969,0.590446 -3.66866,0.857522 -5.54136,1.278077 z m 0.97486,-2.754411 c 2.99312,0.198112 5.80009,-1.715046 6.24915,-4.166242 -2.76665,-0.368003 -4.95077,1.035478 -6.24915,4.166242 z"
     fill="#000000"
     id="path12"
     style="stroke-width:0.0143976" />
  <path
     d="m 49.365472,27.347722 c -1.872699,-2.685734 -3.482498,-3.29245 -5.94982,-2.349981 -1.577404,0.602684 -2.572425,1.739233 -2.8192,3.377396 -0.351878,2.354012 -0.153767,4.675774 0.817065,6.89632 0.817066,1.860606 2.29743,2.746492 4.21865,3.130765 2.341919,0.47325 4.663536,0.19408 6.993361,-0.02836 0.436824,-0.04046 0.869617,-0.181986 1.306441,-0.177955 1.342867,0.01209 1.82418,0.699725 1.439907,2.010197 -0.663299,2.277273 -0.986814,2.564506 -3.357096,2.649452 -1.524853,0.05658 -3.061944,0.117197 -4.578734,-0.0082 -6.038798,-0.497438 -8.946975,-3.599839 -10.289842,-8.906518 -0.950388,-3.753606 -0.169748,-7.426297 1.969884,-10.710685 2.305492,-3.535194 6.42307,-4.594859 10.221021,-2.803074 1.905095,0.89798 2.544205,2.600788 2.912209,4.392717 0.315596,1.536947 -0.602685,2.24891 -2.887877,2.523904 z"
     fill="#000000"
     id="path14"
     style="stroke-width:0.0143976" />
  <path
     d="m 126.76166,30.22768 c -0.089,0.598653 -0.29918,1.302409 -0.28306,2.006165 0.0405,2.256973 1.43588,3.78197 3.69688,3.78197 1.51679,0 3.03358,-0.412636 4.55844,-0.610748 0.56222,-0.07285 1.20133,-0.222587 1.69877,-0.04046 1.16491,0.432793 1.41572,1.848368 0.5582,2.932365 -1.6422,2.070955 -3.92753,2.782918 -6.4392,2.750524 -5.02362,-0.06465 -8.91875,-4.898218 -8.16633,-9.885413 0.35994,-2.378345 1.22552,-4.51812 2.47941,-6.520255 1.51262,-2.41477 3.63612,-3.955893 6.48369,-4.51812 2.74231,-0.541927 5.97818,0.744357 4.77281,5.080348 -0.6715,2.410739 -2.46329,3.794063 -4.82133,4.368384 -1.40348,0.339785 -2.86369,0.428762 -4.53007,0.659268 z m 6.66582,-6.378582 c -2.77875,0.529832 -4.25911,1.896887 -5.62228,4.073089 2.59273,-0.594622 4.63532,-1.237764 5.62228,-4.073089 z"
     fill="#000000"
     id="path16"
     style="stroke-width:0.0143976" />
  <path
     d="m 209.23431,43.478394 c -2.13229,-0.918136 -2.5527,-2.96476 -3.21931,-5.120661 -0.48232,0.461156 -0.8581,0.849317 -1.26699,1.201339 -1.73924,1.488427 -3.61525,2.641245 -5.98942,1.625924 -2.52822,-1.079966 -3.67283,-3.154953 -3.98814,-5.832624 -0.38874,-3.300513 2.96447,-9.30706 7.28808,-11.240374 2.22443,-0.99502 4.31641,0.01613 6.31048,0.918137 0.37146,0.169892 0.57447,0.982926 0.63494,1.524853 0.29947,2.754555 0.48952,5.525235 0.79619,8.279645 0.12957,1.152818 0.31962,2.333856 0.71268,3.417854 0.83218,2.285335 0.62629,3.430091 -1.27419,5.23397 z m -3.74195,-14.464147 c 0.0893,-1.767597 -0.19436,-2.248909 -1.39513,-2.540174 -0.90561,-0.222443 -1.72339,-0.07271 -2.45479,0.578497 -1.73204,1.54501 -3.09117,3.34097 -3.78658,5.573611 -0.21452,0.691662 -0.42041,1.440051 -0.36714,2.143807 0.0922,1.205369 0.61046,2.269066 1.80402,2.807106 1.17197,0.529833 1.94944,-0.238713 2.71396,-0.926344 2.33385,-2.099174 3.08109,-4.90628 3.47847,-7.632471 z"
     fill="#000000"
     id="path18"
     style="stroke-width:0.0143976" />
  <path
     d="m 218.02406,43.405542 c -1.44408,-0.396366 -1.75651,-1.625924 -1.86593,-2.746348 -0.30667,-3.187347 -0.44057,-6.394851 -0.65509,-9.594292 -0.0648,-0.9465 -0.16558,-1.888969 -0.25052,-2.831294 -0.12094,-1.367199 0.3729,-1.921364 1.60533,-1.464239 1.2382,0.461012 2.2086,0.157654 3.33305,-0.299327 2.28203,-0.926343 4.69219,-1.172975 7.12395,-0.756451 0.96608,0.16586 2.12221,0.242744 2.44616,1.488571 0.26348,1.023239 -0.65077,3.660453 -1.45992,3.95978 -0.44057,0.161829 -1.12877,0 -1.57366,-0.254838 -1.95808,-1.104154 -4.99166,-0.986814 -6.48325,0.602685 -0.62774,0.667474 -0.94305,1.808054 -1.01504,2.766648 -0.15405,1.969884 -0.0605,3.963956 -0.0446,5.945933 0.007,1.205226 -0.21452,2.305493 -1.16045,3.179141 z"
     fill="#000000"
     id="path20"
     style="stroke-width:0.0143976" />
  <defs
     id="defs35" />
</svg>
