<?xml version="1.0" encoding="UTF-8" standalone="no"?>
<svg
   width="256"
   height="48"
   viewBox="0 0 256 48"
   fill="none"
   version="1.1"
   id="svg37"
   xmlns="http://www.w3.org/2000/svg"
   xmlns:svg="http://www.w3.org/2000/svg">
  <g
     clip-path="url(#clip0_14_28)"
     id="g30"
     transform="matrix(0.01439763,0,0,0.01439763,-6.893326e-4,0.55099669)">
    <path
       d="m 812.173,339.369 c 50.848,285.992 67.142,577.883 187.947,881.571 38.2,-60.4 67.7,-98.04 87.65,-139.9 125.01,-262.396 249.46,-524.789 370.26,-789.149 31.75,-69.391 66.87,-117.993 150.3,-132.32 201.71,-34.555 267.73,15.732 249.19,216.881 -69.67,746.448 102.54,1449.058 391.62,2127.518 88.21,207.33 25,361 -91.59,519.45 -104.78,-8.15 -142.43,-78.1 -179.23,-152.83 -247.22,-503.72 -395.55,-1036.93 -477.3,-1590.37 -4.22,-27.81 -10.4,-55.06 -43.55,-89.9 -28.93,56.19 -55.06,114.34 -87.65,168.28 -68.26,113.22 -130.91,231.77 -213.23,334.31 -88.77,110.69 -165.745,107.32 -273.342,12.64 C 763.29,1599.92 715.532,1452.43 661.031,1310 c -32.307,-84.28 -53.658,-172.78 -106.192,-263.24 -17.137,44.11 -41.016,86.81 -50.287,132.32 -86.526,424.5 -176.144,848.99 -162.659,1285.84 5.057,157.61 17.137,315.21 26.127,472.53 8.147,143.56 -66.019,260.43 -198.619,311.56 -68.266,26.41 -96.9212,-13.48 -105.9111,-70.23 C 39.8917,3027.91 5.89898,2876.77 2.24687,2725.35 -14.0472,2032.56 61.2425,1352.42 331.78,705.989 374.762,603.448 436.567,508.773 482.078,407.074 532.365,294.419 616.082,279.811 720.87,309.59 c 28.936,8.147 57.31,17.98 91.303,28.936 z"
       fill="#000000"
       id="path2" />
    <path
       d="m 12500,2027.23 c -7.8,314.64 92.5,637.44 -63.4,940 -122.8,-39.61 -177.3,-117.99 -182.9,-254.52 -5.4,-132.32 -5.9,-264.92 -11,-397.53 -2,-50.56 -17.7,-100.85 -15.7,-151.14 3.6,-100.01 -30.4,-159.29 -134,-187.94 -38.5,-10.68 -72.8,-67.99 -91.3,-111.54 -32.3,-76.13 -14.1,-106.75 64.6,-138.78 27.2,-10.95 56.5,-17.13 91.6,-27.25 -94.7,-407.35 -207.9,-795.605 -467.2,-1125.422 -39.6,-50.288 -70,-112.093 -88.8,-173.337 -20.8,-67.705 7,-119.678 86.3,-131.197 120.8,-17.418 240.7,-45.511 362.1,-52.534 352.3,-20.509 697.5,-82.033 1040.8,-157.6048 69.7,-15.4515 141.9,-22.4748 209,-44.9496 125.1,-41.8593 204.3,16.8561 275.9,106.7554 162.4,203.958 143.6,250.594 -110.7,307.904 -398.3,90.18 -802.3,141.872 -1208,184.012 -38.7,3.934 -77,15.171 -128.4,25.846 150.1,307.062 230.4,621.427 301.5,938.327 17.7,79.22 56.4,97.76 130.6,82.31 159.3,-33.43 319.1,-64.33 479.6,-92.99 145.2,-25.85 290.7,-51.69 437.1,-68.83 130.1,-15.17 158.7,24.44 121.4,146.37 -9,29.22 -22.5,57.31 -29,87.09 -22.2,103.94 -87.4,153.67 -190.7,168 -287.1,39.89 -573.7,83.72 -879.1,128.66 z"
       fill="#000000"
       id="path4" />
    <path
       d="m 5607.39,3028.76 c -88.49,-35.12 -135.12,-102.54 -157.32,-190.76 -60.96,-241.6 -122.76,-483.2 -184.01,-724.81 -14.89,-58.43 -28.09,-117.15 -44.67,-185.7 h -799.81 c -32.87,372.52 35.96,744.48 -40.17,1109.98 -145.52,-29.22 -216.88,-92.71 -221.94,-207.33 -9.55,-218.29 -18.54,-437.42 -11.8,-655.42 15.17,-491.08 75.86,-976.81 235.71,-1443.446 72.48,-211.263 173.89,-412.693 259.86,-619.461 34.83,-83.7188 101.98,-107.87914 183.16,-110.68849 82.88,-3.09028 133.73,43.82579 164.91,113.49749 35.4,78.943 73.04,157.885 97.48,240.199 152.55,511.582 302.85,1024.009 451.46,1536.709 63.77,219.98 109.85,445.85 186.54,661.04 69.39,194.41 29.5,343.31 -119.96,476.75 z M 5157.06,1658.36 C 5064.07,1197.91 4945.8,772.852 4793.82,325.885 4533.11,770.886 4439.56,1224.88 4408.94,1717.64 c 255.65,-20.23 486.86,-38.49 748.12,-59.28 z"
       fill="#000000"
       id="path6" />
    <path
       d="m 17358.2,2023.85 c -72.8,128.11 -85.4,275.04 -119.4,415.22 -33.4,137.94 -63.8,276.72 -104.5,412.42 -11.2,37.64 -53.1,89.61 -84,91.58 -33.7,2.25 -79.2,-39.33 -104.8,-73.04 -52.8,-69.67 -76.1,-149.46 -81.2,-241.04 -11.5,-207.05 -32.8,-414.38 -120.8,-612.72 -87.6,18.82 -100.3,89.62 -110.4,150.02 -28.6,169.96 -52,341.33 -71.1,512.7 -12,107.88 -37.6,207.89 -101.7,301.16 -86.8,-11.51 -128.3,-57.03 -138.7,-138.22 -19.1,-151.42 -38.2,-302.84 -61.3,-453.71 -19.9,-130.63 -45.8,-260.42 -68.8,-390.49 -8.4,-48.61 -16.3,-97.21 -23.6,-140.19 95.5,-70.8 163.5,-28.94 228.4,25.28 189.6,-318.86 454,-317.45 651.5,12.93 35.4,-60.69 64.3,-117.43 99.7,-169.69 90.2,-132.88 268.9,-176.14 386,-85.96 44.9,34.55 85.1,91.58 99.7,146.08 38.2,141.59 65.8,286.84 88.5,431.8 24.5,155.64 39.9,312.68 56.2,469.44 10.4,100.57 -5,192.44 -109,249.47 -151.7,-77.54 -196.1,-216.04 -217.2,-364.37 -25.5,-180.64 -42.4,-362.69 -62.9,-544.17 -10.4,-1.69 -20.8,-3.09 -31.2,-4.78 z"
       fill="#000000"
       id="path8" />
    <path
       d="m 6294.27,1711.46 c 154.8,-28.38 273.35,-48.89 391.06,-72.49 34.55,-7.02 67.98,-20.78 101.13,-33.71 57.31,-22.19 112.1,-17.13 157.61,23.32 49.72,44.39 35.67,101.7 17.13,155.08 -64.05,184.85 -90.46,201.43 -241.6,195.25 -114.9,-4.78 -230.08,-0.85 -351.72,-0.85 9.55,325.89 163.22,616.09 113.77,934.39 -115.18,7.59 -157.88,-60.4 -179.79,-140.18 -32.03,-117.15 -55.63,-236.83 -78.66,-356.23 -17.14,-89.62 -28.1,-180.64 -40.74,-271.1 -10.39,-75.29 -22.75,-139.63 -96.92,-192.44 -48.6,-34.56 -61.52,-118.84 -92.43,-185.7 43.27,-28.66 71.92,-47.48 104.79,-69.11 0,-12.08 0.84,-26.97 0,-41.86 -13.48,-197.5 -32.31,-394.99 -39.61,-592.77 -8.15,-217.726 53.94,-420.28 147.21,-616.653 183.45,-386.8476 623.95,-494.7266 980.17,-131.759 39.05,39.612 71.35,86.528 102.82,132.601 87.65,129.23 76.69,292.453 -22.48,408.76 -33.71,39.331 -71.91,42.421 -104.78,9.271 -38.77,-39.05 -69.39,-86.528 -103.11,-130.634 -52.25,-68.268 -96.07,-145.244 -157.6,-203.959 -126.7,-120.802 -264.92,-114.341 -393.02,4.495 -156.2,144.962 -210.14,336.56 -221.94,536.028 -11.8,200.86 4.78,403.7 9.55,639.96 z"
       fill="#000000"
       id="path10" />
    <path
       d="m 7455.92,2227.81 c -10.11,184.58 57.03,273.63 240.76,280.94 166.03,6.74 334.03,28.65 499.22,-22.2 33.71,-10.39 89.33,-6.18 110.4,15.45 18.54,19.11 10.96,74.17 0,108.73 -46.35,147.77 -135.97,249.47 -303.12,253.96 -106.48,2.81 -213.51,8.15 -319.7,2.81 -384.6,-19.67 -572.82,-453.15 -501.47,-721.44 50.85,-191.04 125.86,-366.34 271.1,-504.28 123.89,-117.71 275.04,-180.92 444.16,-169.68 277.28,18.54 321.1,196.37 253.4,372.24 -57.87,150.01 -164.63,246.94 -309.87,294.98 -123.61,41.01 -254.81,59.56 -384.88,88.77 z m 67.71,-191.31 c 207.89,13.76 402.85,-119.12 434.04,-289.37 -192.16,-25.56 -343.86,71.92 -434.04,289.37 z"
       fill="#000000"
       id="path12" />
    <path
       d="m 3428.77,1861.19 c -130.07,-186.54 -241.88,-228.68 -413.25,-163.22 -109.56,41.86 -178.67,120.8 -195.81,234.58 -24.44,163.5 -10.68,324.76 56.75,478.99 56.75,129.23 159.57,190.76 293.01,217.45 162.66,32.87 323.91,13.48 485.73,-1.97 30.34,-2.81 60.4,-12.64 90.74,-12.36 93.27,0.84 126.7,48.6 100.01,139.62 -46.07,158.17 -68.54,178.12 -233.17,184.02 -105.91,3.93 -212.67,8.14 -318.02,-0.57 -419.43,-34.55 -621.42,-250.03 -714.69,-618.61 -66.01,-260.71 -11.79,-515.8 136.82,-743.92 160.13,-245.54 446.12,-319.14 709.91,-194.69 132.32,62.37 176.71,180.64 202.27,305.1 21.92,106.75 -41.86,156.2 -200.58,175.3 z"
       fill="#000000"
       id="path14" />
    <path
       d="m 8804.39,2061.22 c -6.18,41.58 -20.78,90.46 -19.66,139.34 2.81,156.76 99.73,262.68 256.77,262.68 105.35,0 210.7,-28.66 316.61,-42.42 39.05,-5.06 83.44,-15.46 117.99,-2.81 80.91,30.06 98.33,128.38 38.77,203.67 -114.06,143.84 -272.79,193.29 -447.24,191.04 -348.92,-4.49 -619.46,-340.21 -567.2,-686.6 25,-165.19 85.12,-313.81 172.21,-452.87 105.06,-167.72 252.55,-274.76 450.33,-313.81 190.47,-37.64 415.22,51.7 331.5,352.86 -46.64,167.44 -171.09,263.52 -334.87,303.41 -97.48,23.6 -198.9,29.78 -314.64,45.79 z m 462.98,-443.03 c -193,36.8 -295.82,131.75 -390.5,282.9 180.08,-41.3 321.95,-85.97 390.5,-282.9 z"
       fill="#000000"
       id="path16" />
    <path
       d="m 14532.6,2981.56 c -148.1,-63.77 -177.3,-205.92 -223.6,-355.66 -33.5,32.03 -59.6,58.99 -88,83.44 -120.8,103.38 -251.1,183.45 -416,112.93 -175.6,-75.01 -255.1,-219.13 -277,-405.11 -27,-229.24 205.9,-646.43 506.2,-780.71 154.5,-69.11 299.8,1.12 438.3,63.77 25.8,11.8 39.9,68.27 44.1,105.91 20.8,191.32 34,383.76 55.3,575.07 9,80.07 22.2,162.1 49.5,237.39 57.8,158.73 43.5,238.24 -88.5,363.53 z m -259.9,-1004.62 c 6.2,-122.77 -13.5,-156.2 -96.9,-176.43 -62.9,-15.45 -119.7,-5.05 -170.5,40.18 -120.3,107.31 -214.7,232.05 -263,387.12 -14.9,48.04 -29.2,100.02 -25.5,148.9 6.4,83.72 42.4,157.6 125.3,194.97 81.4,36.8 135.4,-16.58 188.5,-64.34 162.1,-145.8 214,-340.77 241.6,-530.12 z"
       fill="#000000"
       id="path18" />
    <path
       d="m 15143.1,2976.5 c -100.3,-27.53 -122,-112.93 -129.6,-190.75 -21.3,-221.38 -30.6,-444.16 -45.5,-666.38 -4.5,-65.74 -11.5,-131.2 -17.4,-196.65 -8.4,-94.96 25.9,-133.45 111.5,-101.7 86,32.02 153.4,10.95 231.5,-20.79 158.5,-64.34 325.9,-81.47 494.8,-52.54 67.1,11.52 147.4,16.86 169.9,103.39 18.3,71.07 -45.2,254.24 -101.4,275.03 -30.6,11.24 -78.4,0 -109.3,-17.7 -136,-76.69 -346.7,-68.54 -450.3,41.86 -43.6,46.36 -65.5,125.58 -70.5,192.16 -10.7,136.82 -4.2,275.32 -3.1,412.98 0.5,83.71 -14.9,160.13 -80.6,220.81 z"
       fill="#000000"
       id="path20" />
  </g>
  <defs
     id="defs35" />
</svg>
